<svg xmlns="http://www.w3.org/2000/svg" xmlns:xlink="http://www.w3.org/1999/xlink" width="500" zoomAndPan="magnify" viewBox="0 0 375 374.999991" height="500" preserveAspectRatio="xMidYMid meet" version="1.0"><defs><clipPath id="a5d535a805"><path d="M 114.578125 99.050781 L 260.078125 99.050781 L 260.078125 244.550781 L 114.578125 244.550781 Z M 114.578125 99.050781 " clip-rule="nonzero"/></clipPath></defs><g clip-path="url(#a5d535a805)"><path fill="#5e17eb" d="M 187.328125 99.050781 C 147.148438 99.050781 114.578125 131.621094 114.578125 171.800781 C 114.578125 211.980469 147.148438 244.550781 187.328125 244.550781 C 227.507812 244.550781 260.078125 211.980469 260.078125 171.800781 C 260.078125 131.621094 227.507812 99.050781 187.328125 99.050781 Z M 201.222656 214.679688 C 198.996094 215.109375 198.203125 213.742188 198.203125 212.5625 C 198.203125 211.113281 198.261719 206.371094 198.261719 200.480469 C 198.261719 196.367188 196.855469 193.683594 195.285156 192.324219 C 205.054688 191.230469 215.320312 187.507812 215.320312 170.585938 C 215.320312 165.777344 213.625 161.839844 210.808594 158.765625 C 211.261719 157.652344 212.765625 153.167969 210.375 147.109375 C 210.375 147.109375 206.699219 145.921875 198.320312 151.628906 C 194.8125 150.652344 191.058594 150.164062 187.335938 150.144531 C 183.601562 150.164062 179.847656 150.652344 176.347656 151.628906 C 167.96875 145.929688 164.285156 147.109375 164.285156 147.109375 C 161.902344 153.175781 163.40625 157.652344 163.859375 158.765625 C 161.050781 161.839844 159.339844 165.777344 159.339844 170.585938 C 159.339844 187.464844 169.582031 191.238281 179.324219 192.351562 C 178.074219 193.449219 176.9375 195.394531 176.539062 198.238281 C 174.035156 199.367188 167.683594 201.308594 163.769531 194.578125 C 163.769531 194.578125 161.457031 190.351562 157.054688 190.039062 C 157.054688 190.039062 152.769531 189.980469 156.757812 192.714844 C 156.757812 192.714844 159.628906 194.070312 161.625 199.160156 C 161.625 199.160156 164.199219 207.730469 176.40625 205.070312 C 176.429688 208.742188 176.464844 211.515625 176.464844 212.5625 C 176.464844 213.726562 175.664062 215.085938 173.46875 214.6875 C 156.03125 208.859375 143.457031 192.351562 143.457031 172.890625 C 143.457031 148.558594 163.101562 128.839844 187.335938 128.839844 C 211.566406 128.839844 231.210938 148.5625 231.210938 172.890625 C 231.210938 192.34375 218.652344 208.84375 201.230469 214.679688 Z M 201.222656 214.679688 " fill-opacity="1" fill-rule="nonzero"/></g></svg>