<svg xmlns="http://www.w3.org/2000/svg" xmlns:xlink="http://www.w3.org/1999/xlink" width="500" zoomAndPan="magnify" viewBox="0 0 375 374.999991" height="500" preserveAspectRatio="xMidYMid meet" version="1.0"><defs><clipPath id="0b77d409b2"><path d="M 117.347656 112.5 L 257.597656 112.5 L 257.597656 252.75 L 117.347656 252.75 Z M 117.347656 112.5 " clip-rule="nonzero"/></clipPath></defs><g clip-path="url(#0b77d409b2)"><path fill="#0277b5" d="M 245.878906 112.5 L 129.132812 112.5 C 122.679688 112.5 117.484375 117.761719 117.484375 124.148438 L 117.484375 241.101562 C 117.484375 247.558594 122.75 252.75 129.132812 252.75 L 245.808594 252.75 C 252.261719 252.75 257.457031 247.488281 257.457031 241.101562 L 257.457031 124.148438 C 257.527344 117.761719 252.332031 112.5 245.878906 112.5 Z M 158.949219 228.195312 L 138.253906 228.195312 L 138.253906 166.03125 L 158.949219 166.03125 Z M 148.566406 158.523438 C 142.042969 158.523438 136.78125 153.261719 136.78125 146.738281 C 136.78125 140.214844 142.042969 134.953125 148.566406 134.953125 C 155.09375 134.953125 160.355469 140.214844 160.355469 146.738281 C 160.355469 153.261719 155.09375 158.523438 148.566406 158.523438 Z M 236.828125 228.195312 L 216.0625 228.195312 L 215.570312 191.289062 C 215.570312 191.289062 216.0625 181.46875 205.328125 181.539062 C 194.59375 181.609375 193.117188 191.289062 193.117188 191.289062 L 193.117188 228.195312 L 172.210938 228.195312 L 172.210938 166.03125 L 192.277344 166.03125 L 192.277344 174.589844 C 192.277344 174.589844 193.117188 171.785156 197.75 168.488281 C 202.378906 165.191406 210.027344 164.488281 213.324219 164.628906 C 216.621094 164.769531 221.113281 164.207031 228.621094 169.398438 C 236.6875 174.941406 236.898438 189.464844 236.898438 189.464844 Z M 236.828125 228.195312 " fill-opacity="1" fill-rule="nonzero"/></g></svg>