<svg xmlns="http://www.w3.org/2000/svg" xmlns:xlink="http://www.w3.org/1999/xlink" width="500" zoomAndPan="magnify" viewBox="0 0 375 374.999991" height="500" preserveAspectRatio="xMidYMid meet" version="1.0"><defs><clipPath id="44208b6536"><path d="M 112.5 103.113281 L 262.5 103.113281 L 262.5 253.113281 L 112.5 253.113281 Z M 112.5 103.113281 " clip-rule="nonzero"/></clipPath></defs><g clip-path="url(#44208b6536)"><path fill="#1b9df0" d="M 262.5 178.113281 C 262.5 179.339844 262.46875 180.566406 262.410156 181.792969 C 262.347656 183.019531 262.257812 184.242188 262.140625 185.464844 C 262.019531 186.683594 261.867188 187.902344 261.6875 189.117188 C 261.507812 190.332031 261.296875 191.539062 261.058594 192.742188 C 260.820312 193.949219 260.550781 195.144531 260.253906 196.335938 C 259.953125 197.527344 259.625 198.707031 259.269531 199.882812 C 258.914062 201.058594 258.527344 202.222656 258.117188 203.378906 C 257.703125 204.535156 257.261719 205.679688 256.789062 206.8125 C 256.320312 207.945312 255.824219 209.070312 255.300781 210.179688 C 254.773438 211.289062 254.222656 212.382812 253.644531 213.464844 C 253.066406 214.550781 252.460938 215.617188 251.828125 216.667969 C 251.199219 217.722656 250.542969 218.757812 249.859375 219.78125 C 249.179688 220.800781 248.472656 221.804688 247.742188 222.789062 C 247.007812 223.773438 246.253906 224.742188 245.476562 225.691406 C 244.695312 226.640625 243.894531 227.570312 243.070312 228.480469 C 242.246094 229.386719 241.402344 230.277344 240.53125 231.144531 C 239.664062 232.011719 238.777344 232.859375 237.867188 233.683594 C 236.957031 234.507812 236.027344 235.308594 235.078125 236.085938 C 234.128906 236.867188 233.164062 237.621094 232.175781 238.351562 C 231.191406 239.082031 230.1875 239.789062 229.167969 240.472656 C 228.148438 241.152344 227.109375 241.8125 226.058594 242.441406 C 225.003906 243.074219 223.9375 243.675781 222.855469 244.257812 C 221.773438 244.835938 220.675781 245.386719 219.566406 245.910156 C 218.457031 246.4375 217.335938 246.933594 216.203125 247.402344 C 215.066406 247.871094 213.921875 248.3125 212.765625 248.726562 C 211.609375 249.140625 210.445312 249.527344 209.269531 249.882812 C 208.097656 250.238281 206.914062 250.566406 205.722656 250.863281 C 204.53125 251.164062 203.335938 251.429688 202.132812 251.671875 C 200.929688 251.910156 199.71875 252.121094 198.503906 252.300781 C 197.289062 252.480469 196.074219 252.628906 194.851562 252.75 C 193.628906 252.871094 192.40625 252.960938 191.179688 253.023438 C 189.953125 253.082031 188.726562 253.113281 187.5 253.113281 C 186.273438 253.113281 185.046875 253.082031 183.820312 253.023438 C 182.59375 252.960938 181.371094 252.871094 180.148438 252.75 C 178.925781 252.628906 177.710938 252.480469 176.496094 252.300781 C 175.28125 252.121094 174.070312 251.910156 172.867188 251.671875 C 171.664062 251.429688 170.46875 251.164062 169.277344 250.863281 C 168.085938 250.566406 166.902344 250.238281 165.730469 249.882812 C 164.554688 249.527344 163.390625 249.140625 162.234375 248.726562 C 161.078125 248.3125 159.933594 247.871094 158.796875 247.402344 C 157.664062 246.933594 156.542969 246.4375 155.433594 245.910156 C 154.324219 245.386719 153.226562 244.835938 152.144531 244.257812 C 151.0625 243.675781 149.996094 243.074219 148.941406 242.441406 C 147.890625 241.8125 146.851562 241.152344 145.832031 240.472656 C 144.8125 239.789062 143.808594 239.082031 142.824219 238.351562 C 141.835938 237.621094 140.871094 236.867188 139.921875 236.085938 C 138.972656 235.308594 138.042969 234.507812 137.132812 233.683594 C 136.222656 232.859375 135.335938 232.011719 134.46875 231.144531 C 133.597656 230.277344 132.753906 229.386719 131.929688 228.480469 C 131.105469 227.570312 130.304688 226.640625 129.523438 225.691406 C 128.746094 224.742188 127.992188 223.773438 127.257812 222.789062 C 126.527344 221.804688 125.820312 220.800781 125.140625 219.78125 C 124.457031 218.757812 123.800781 217.722656 123.171875 216.667969 C 122.539062 215.617188 121.933594 214.550781 121.355469 213.464844 C 120.777344 212.382812 120.226562 211.289062 119.699219 210.179688 C 119.175781 209.070312 118.679688 207.945312 118.210938 206.8125 C 117.738281 205.679688 117.296875 204.535156 116.882812 203.378906 C 116.46875 202.222656 116.085938 201.058594 115.730469 199.882812 C 115.375 198.707031 115.046875 197.527344 114.746094 196.335938 C 114.449219 195.144531 114.179688 193.949219 113.941406 192.742188 C 113.703125 191.539062 113.492188 190.332031 113.3125 189.117188 C 113.132812 187.902344 112.980469 186.683594 112.859375 185.464844 C 112.742188 184.242188 112.652344 183.019531 112.589844 181.792969 C 112.53125 180.566406 112.5 179.339844 112.5 178.113281 C 112.5 176.882812 112.53125 175.65625 112.589844 174.433594 C 112.652344 173.207031 112.742188 171.980469 112.859375 170.761719 C 112.980469 169.539062 113.132812 168.320312 113.3125 167.105469 C 113.492188 165.894531 113.703125 164.683594 113.941406 163.480469 C 114.179688 162.277344 114.449219 161.078125 114.746094 159.886719 C 115.046875 158.699219 115.375 157.515625 115.730469 156.339844 C 116.085938 155.167969 116.46875 154 116.882812 152.84375 C 117.296875 151.691406 117.738281 150.542969 118.210938 149.410156 C 118.679688 148.277344 119.175781 147.15625 119.699219 146.046875 C 120.226562 144.9375 120.777344 143.839844 121.355469 142.757812 C 121.933594 141.675781 122.539062 140.605469 123.171875 139.554688 C 123.800781 138.5 124.457031 137.464844 125.140625 136.445312 C 125.820312 135.421875 126.527344 134.421875 127.257812 133.433594 C 127.992188 132.449219 128.746094 131.480469 129.523438 130.53125 C 130.304688 129.582031 131.105469 128.65625 131.929688 127.746094 C 132.753906 126.835938 133.597656 125.945312 134.46875 125.078125 C 135.335938 124.210938 136.222656 123.363281 137.132812 122.539062 C 138.042969 121.714844 138.972656 120.914062 139.921875 120.136719 C 140.871094 119.359375 141.835938 118.601562 142.824219 117.871094 C 143.808594 117.140625 144.8125 116.433594 145.832031 115.75 C 146.851562 115.070312 147.890625 114.414062 148.941406 113.78125 C 149.996094 113.152344 151.0625 112.546875 152.144531 111.96875 C 153.226562 111.390625 154.324219 110.835938 155.433594 110.3125 C 156.542969 109.789062 157.664062 109.289062 158.796875 108.820312 C 159.933594 108.351562 161.078125 107.910156 162.234375 107.496094 C 163.390625 107.082031 164.554688 106.699219 165.730469 106.339844 C 166.902344 105.984375 168.085938 105.65625 169.277344 105.359375 C 170.46875 105.0625 171.664062 104.792969 172.867188 104.554688 C 174.070312 104.3125 175.28125 104.105469 176.496094 103.921875 C 177.710938 103.742188 178.925781 103.59375 180.148438 103.472656 C 181.371094 103.351562 182.59375 103.261719 183.820312 103.203125 C 185.046875 103.140625 186.273438 103.113281 187.5 103.113281 C 188.726562 103.113281 189.953125 103.140625 191.179688 103.203125 C 192.40625 103.261719 193.628906 103.351562 194.851562 103.472656 C 196.074219 103.59375 197.289062 103.742188 198.503906 103.921875 C 199.71875 104.105469 200.929688 104.3125 202.132812 104.554688 C 203.335938 104.792969 204.53125 105.0625 205.722656 105.359375 C 206.914062 105.65625 208.097656 105.984375 209.269531 106.339844 C 210.445312 106.699219 211.609375 107.082031 212.765625 107.496094 C 213.921875 107.910156 215.066406 108.351562 216.203125 108.820312 C 217.335938 109.289062 218.457031 109.789062 219.566406 110.3125 C 220.675781 110.835938 221.773438 111.390625 222.855469 111.96875 C 223.9375 112.546875 225.003906 113.152344 226.058594 113.78125 C 227.109375 114.414062 228.148438 115.070312 229.167969 115.75 C 230.1875 116.433594 231.191406 117.140625 232.175781 117.871094 C 233.164062 118.601562 234.128906 119.359375 235.078125 120.136719 C 236.027344 120.914062 236.957031 121.714844 237.867188 122.539062 C 238.777344 123.363281 239.664062 124.210938 240.53125 125.078125 C 241.402344 125.945312 242.246094 126.835938 243.070312 127.746094 C 243.894531 128.65625 244.695312 129.582031 245.476562 130.53125 C 246.253906 131.480469 247.007812 132.449219 247.742188 133.433594 C 248.472656 134.421875 249.179688 135.421875 249.859375 136.445312 C 250.542969 137.464844 251.199219 138.5 251.828125 139.554688 C 252.460938 140.605469 253.066406 141.675781 253.644531 142.757812 C 254.222656 143.839844 254.773438 144.9375 255.300781 146.046875 C 255.824219 147.15625 256.320312 148.277344 256.789062 149.410156 C 257.261719 150.542969 257.703125 151.691406 258.117188 152.84375 C 258.527344 154 258.914062 155.167969 259.269531 156.339844 C 259.625 157.515625 259.953125 158.699219 260.253906 159.886719 C 260.550781 161.078125 260.820312 162.277344 261.058594 163.480469 C 261.296875 164.683594 261.507812 165.894531 261.6875 167.105469 C 261.867188 168.320312 262.019531 169.539062 262.140625 170.761719 C 262.257812 171.980469 262.347656 173.207031 262.410156 174.433594 C 262.46875 175.65625 262.5 176.882812 262.5 178.113281 Z M 262.5 178.113281 " fill-opacity="1" fill-rule="nonzero"/></g><path fill="#ffffff" d="M 173.773438 217.675781 C 207.039062 217.675781 225.226562 190.113281 225.226562 166.222656 C 225.226562 165.4375 225.226562 164.648438 225.1875 163.898438 C 228.710938 161.347656 231.789062 158.160156 234.226562 154.523438 C 231 155.949219 227.511719 156.925781 223.835938 157.375 C 227.585938 155.125 230.4375 151.597656 231.789062 147.363281 C 228.300781 149.425781 224.4375 150.925781 220.3125 151.75 C 217.011719 148.222656 212.324219 146.050781 207.113281 146.050781 C 197.136719 146.050781 189.039062 154.148438 189.039062 164.125 C 189.039062 165.550781 189.1875 166.9375 189.523438 168.25 C 174.488281 167.5 161.175781 160.300781 152.25 149.347656 C 150.710938 152.011719 149.8125 155.125 149.8125 158.425781 C 149.8125 164.6875 153 170.238281 157.875 173.460938 C 154.914062 173.386719 152.136719 172.5625 149.699219 171.210938 C 149.699219 171.285156 149.699219 171.363281 149.699219 171.4375 C 149.699219 180.210938 155.925781 187.488281 164.210938 189.175781 C 162.710938 189.585938 161.101562 189.8125 159.449219 189.8125 C 158.289062 189.8125 157.164062 189.699219 156.039062 189.472656 C 158.324219 196.675781 165 201.886719 172.914062 202.035156 C 166.726562 206.875 158.925781 209.761719 150.449219 209.761719 C 148.988281 209.761719 147.5625 209.6875 146.136719 209.5 C 154.050781 214.675781 163.574219 217.675781 173.773438 217.675781 " fill-opacity="1" fill-rule="nonzero"/></svg>