<svg xmlns="http://www.w3.org/2000/svg" xmlns:xlink="http://www.w3.org/1999/xlink" width="500" zoomAndPan="magnify" viewBox="0 0 375 374.999991" height="500" preserveAspectRatio="xMidYMid meet" version="1.0"><defs><clipPath id="00612423d8"><path d="M 165.28125 153 L 209.53125 153 L 209.53125 199 L 165.28125 199 Z M 165.28125 153 " clip-rule="nonzero"/></clipPath><clipPath id="2359803311"><path d="M 183 148.417969 L 192 148.417969 L 192 157 L 183 157 Z M 183 148.417969 " clip-rule="nonzero"/></clipPath></defs><path fill="#c1ff72" d="M 188.707031 152.617188 C 188.707031 152.617188 166.597656 162.585938 166.597656 168.355469 C 166.597656 174.128906 166.238281 185.996094 169.890625 188.023438 C 173.542969 190.050781 184.511719 199.34375 188.707031 197.015625 C 192.898438 194.691406 208.472656 190.042969 208.210938 175 C 207.953125 159.960938 187.402344 175 187.402344 175 Z M 188.707031 152.617188 " fill-opacity="1" fill-rule="nonzero"/><g clip-path="url(#00612423d8)"><path fill="#000000" d="M 187.40625 198.789062 C 187.230469 198.789062 187.058594 198.746094 186.902344 198.660156 L 166.09375 187.113281 C 165.765625 186.929688 165.558594 186.578125 165.558594 186.195312 L 165.558594 164.160156 C 165.558594 163.777344 165.765625 163.425781 166.09375 163.238281 L 184.175781 153.207031 C 184.679688 152.933594 185.3125 153.109375 185.59375 153.621094 C 185.871094 154.128906 185.6875 154.765625 185.183594 155.046875 L 167.636719 164.777344 L 167.636719 185.574219 L 187.40625 196.539062 L 207.171875 185.574219 L 207.171875 165.933594 L 190.632812 175.109375 C 190.128906 175.386719 189.5 175.203125 189.21875 174.695312 C 188.941406 174.1875 189.125 173.546875 189.628906 173.269531 L 207.710938 163.238281 C 208.03125 163.058594 208.421875 163.066406 208.742188 163.253906 C 209.058594 163.445312 209.253906 163.789062 209.253906 164.160156 L 209.253906 186.195312 C 209.253906 186.578125 209.046875 186.929688 208.714844 187.113281 L 187.90625 198.660156 C 187.75 198.746094 187.578125 198.789062 187.40625 198.789062 Z M 187.40625 198.789062 " fill-opacity="1" fill-rule="nonzero"/></g><g clip-path="url(#2359803311)"><path fill="#000000" d="M 187.40625 156.8125 C 185.109375 156.8125 183.242188 154.929688 183.242188 152.617188 C 183.242188 150.300781 185.109375 148.417969 187.40625 148.417969 C 189.699219 148.417969 191.566406 150.300781 191.566406 152.617188 C 191.566406 154.929688 189.699219 156.8125 187.40625 156.8125 Z M 187.40625 150.515625 C 186.257812 150.515625 185.324219 151.460938 185.324219 152.617188 C 185.324219 153.773438 186.257812 154.714844 187.40625 154.714844 C 188.554688 154.714844 189.484375 153.773438 189.484375 152.617188 C 189.484375 151.460938 188.554688 150.515625 187.40625 150.515625 Z M 187.40625 150.515625 " fill-opacity="1" fill-rule="nonzero"/></g><path fill="#000000" d="M 187.402344 179.898438 C 186.441406 179.898438 185.472656 179.5625 184.6875 178.878906 C 183.84375 178.148438 183.335938 177.128906 183.257812 176.011719 C 183.171875 174.890625 183.527344 173.808594 184.253906 172.957031 C 185.753906 171.207031 188.386719 171.007812 190.121094 172.523438 C 190.964844 173.253906 191.472656 174.273438 191.550781 175.390625 C 191.636719 176.511719 191.28125 177.59375 190.554688 178.441406 C 189.734375 179.402344 188.574219 179.898438 187.402344 179.898438 Z M 187.40625 173.601562 C 186.824219 173.601562 186.238281 173.847656 185.828125 174.328125 C 185.464844 174.753906 185.289062 175.292969 185.332031 175.855469 C 185.371094 176.414062 185.625 176.921875 186.046875 177.289062 C 186.914062 178.042969 188.230469 177.949219 188.980469 177.070312 C 189.34375 176.644531 189.519531 176.105469 189.480469 175.542969 C 189.4375 174.988281 189.183594 174.476562 188.765625 174.109375 C 188.371094 173.769531 187.886719 173.601562 187.40625 173.601562 Z M 189.769531 177.757812 L 189.789062 177.757812 Z M 189.769531 177.757812 " fill-opacity="1" fill-rule="nonzero"/></svg>