<svg xmlns="http://www.w3.org/2000/svg" xmlns:xlink="http://www.w3.org/1999/xlink" width="500" zoomAndPan="magnify" viewBox="0 0 375 374.999991" height="500" preserveAspectRatio="xMidYMid meet" version="1.0"><defs><g/><clipPath id="023b230168"><path d="M 165.28125 153 L 209.53125 153 L 209.53125 199 L 165.28125 199 Z M 165.28125 153 " clip-rule="nonzero"/></clipPath><clipPath id="1d570684a9"><path d="M 183 148.417969 L 192 148.417969 L 192 157 L 183 157 Z M 183 148.417969 " clip-rule="nonzero"/></clipPath></defs><path fill="#c1ff72" d="M 188.707031 152.617188 C 188.707031 152.617188 166.597656 162.585938 166.597656 168.355469 C 166.597656 174.128906 166.238281 185.996094 169.890625 188.023438 C 173.542969 190.050781 184.511719 199.34375 188.707031 197.015625 C 192.898438 194.691406 208.472656 190.042969 208.210938 175 C 207.953125 159.960938 187.402344 175 187.402344 175 Z M 188.707031 152.617188 " fill-opacity="1" fill-rule="nonzero"/><g clip-path="url(#023b230168)"><path fill="#000000" d="M 187.40625 198.789062 C 187.230469 198.789062 187.058594 198.746094 186.902344 198.660156 L 166.09375 187.113281 C 165.765625 186.929688 165.558594 186.578125 165.558594 186.195312 L 165.558594 164.160156 C 165.558594 163.777344 165.765625 163.425781 166.09375 163.238281 L 184.175781 153.207031 C 184.679688 152.933594 185.3125 153.109375 185.59375 153.621094 C 185.871094 154.128906 185.6875 154.765625 185.183594 155.046875 L 167.636719 164.777344 L 167.636719 185.574219 L 187.40625 196.539062 L 207.171875 185.574219 L 207.171875 165.933594 L 190.632812 175.109375 C 190.128906 175.386719 189.5 175.203125 189.21875 174.695312 C 188.941406 174.1875 189.125 173.546875 189.628906 173.269531 L 207.710938 163.238281 C 208.03125 163.058594 208.421875 163.066406 208.742188 163.253906 C 209.058594 163.445312 209.253906 163.789062 209.253906 164.160156 L 209.253906 186.195312 C 209.253906 186.578125 209.046875 186.929688 208.714844 187.113281 L 187.90625 198.660156 C 187.75 198.746094 187.578125 198.789062 187.40625 198.789062 Z M 187.40625 198.789062 " fill-opacity="1" fill-rule="nonzero"/></g><g clip-path="url(#1d570684a9)"><path fill="#000000" d="M 187.40625 156.8125 C 185.109375 156.8125 183.242188 154.929688 183.242188 152.617188 C 183.242188 150.300781 185.109375 148.417969 187.40625 148.417969 C 189.699219 148.417969 191.566406 150.300781 191.566406 152.617188 C 191.566406 154.929688 189.699219 156.8125 187.40625 156.8125 Z M 187.40625 150.515625 C 186.257812 150.515625 185.324219 151.460938 185.324219 152.617188 C 185.324219 153.773438 186.257812 154.714844 187.40625 154.714844 C 188.554688 154.714844 189.484375 153.773438 189.484375 152.617188 C 189.484375 151.460938 188.554688 150.515625 187.40625 150.515625 Z M 187.40625 150.515625 " fill-opacity="1" fill-rule="nonzero"/></g><path fill="#000000" d="M 187.402344 179.898438 C 186.441406 179.898438 185.472656 179.5625 184.6875 178.878906 C 183.84375 178.148438 183.335938 177.128906 183.257812 176.011719 C 183.171875 174.890625 183.527344 173.808594 184.253906 172.957031 C 185.753906 171.207031 188.386719 171.007812 190.121094 172.523438 C 190.964844 173.253906 191.472656 174.273438 191.550781 175.390625 C 191.636719 176.511719 191.28125 177.59375 190.554688 178.441406 C 189.734375 179.402344 188.574219 179.898438 187.402344 179.898438 Z M 187.40625 173.601562 C 186.824219 173.601562 186.238281 173.847656 185.828125 174.328125 C 185.464844 174.753906 185.289062 175.292969 185.332031 175.855469 C 185.371094 176.414062 185.625 176.921875 186.046875 177.289062 C 186.914062 178.042969 188.230469 177.949219 188.980469 177.070312 C 189.34375 176.644531 189.519531 176.105469 189.480469 175.542969 C 189.4375 174.984375 189.183594 174.476562 188.765625 174.109375 C 188.371094 173.769531 187.886719 173.601562 187.40625 173.601562 Z M 189.769531 177.757812 L 189.789062 177.757812 Z M 189.769531 177.757812 " fill-opacity="1" fill-rule="nonzero"/><g fill="#000000" fill-opacity="1"><g transform="translate(124.55859, 220.343424)"><g><path d="M 10.265625 -0.265625 L 7.65625 -6.125 L 3.359375 -6.125 L 3.359375 -0.28125 C 3.359375 -0.09375 3.265625 0 3.078125 0 L 2.125 0 C 1.9375 0 1.84375 -0.09375 1.84375 -0.28125 L 1.84375 -13.5 C 1.84375 -13.6875 1.9375 -13.78125 2.125 -13.78125 L 9.234375 -13.78125 C 9.640625 -13.78125 10.019531 -13.703125 10.375 -13.546875 C 10.726562 -13.390625 11.035156 -13.175781 11.296875 -12.90625 C 11.566406 -12.644531 11.78125 -12.332031 11.9375 -11.96875 C 12.09375 -11.613281 12.171875 -11.238281 12.171875 -10.84375 L 12.171875 -9.0625 C 12.171875 -8.40625 11.972656 -7.816406 11.578125 -7.296875 C 11.179688 -6.785156 10.671875 -6.4375 10.046875 -6.25 L 9.359375 -6.046875 L 11.921875 -0.265625 C 11.960938 -0.191406 11.96875 -0.128906 11.9375 -0.078125 C 11.90625 -0.0234375 11.847656 0 11.765625 0 L 10.65625 0 C 10.582031 0 10.503906 -0.0234375 10.421875 -0.078125 C 10.335938 -0.128906 10.285156 -0.191406 10.265625 -0.265625 Z M 3.359375 -7.65625 L 9.234375 -7.65625 C 9.617188 -7.65625 9.945312 -7.789062 10.21875 -8.0625 C 10.5 -8.332031 10.640625 -8.664062 10.640625 -9.0625 L 10.640625 -10.84375 C 10.640625 -11.226562 10.5 -11.554688 10.21875 -11.828125 C 9.945312 -12.109375 9.617188 -12.25 9.234375 -12.25 L 3.359375 -12.25 Z M 3.359375 -7.65625 "/></g></g></g><g fill="#000000" fill-opacity="1"><g transform="translate(138.550296, 220.343424)"><g><path d="M 5.984375 -0.75 L 5.984375 -4.296875 C 5.984375 -4.898438 5.859375 -5.304688 5.609375 -5.515625 C 5.492188 -5.597656 5.335938 -5.660156 5.140625 -5.703125 C 4.941406 -5.742188 4.726562 -5.773438 4.5 -5.796875 C 4.3125 -5.828125 4.21875 -5.929688 4.21875 -6.109375 L 4.21875 -7.671875 C 4.21875 -7.734375 4.242188 -7.796875 4.296875 -7.859375 C 4.347656 -7.921875 4.414062 -7.953125 4.5 -7.953125 C 4.726562 -7.972656 4.941406 -8.003906 5.140625 -8.046875 C 5.335938 -8.097656 5.492188 -8.164062 5.609375 -8.25 C 5.859375 -8.445312 5.984375 -8.859375 5.984375 -9.484375 L 5.984375 -13.03125 C 5.984375 -13.4375 6.054688 -13.816406 6.203125 -14.171875 C 6.359375 -14.535156 6.566406 -14.847656 6.828125 -15.109375 C 7.097656 -15.367188 7.410156 -15.578125 7.765625 -15.734375 C 8.128906 -15.890625 8.515625 -15.96875 8.921875 -15.96875 L 9.5 -15.96875 C 9.6875 -15.96875 9.78125 -15.875 9.78125 -15.6875 L 9.78125 -14.71875 C 9.78125 -14.644531 9.753906 -14.578125 9.703125 -14.515625 C 9.648438 -14.460938 9.582031 -14.4375 9.5 -14.4375 L 8.921875 -14.4375 C 8.523438 -14.4375 8.191406 -14.296875 7.921875 -14.015625 C 7.648438 -13.742188 7.515625 -13.414062 7.515625 -13.03125 L 7.515625 -9.484375 C 7.515625 -8.796875 7.335938 -8.222656 6.984375 -7.765625 C 6.847656 -7.578125 6.722656 -7.445312 6.609375 -7.375 L 5.984375 -6.859375 L 6.609375 -6.390625 C 6.722656 -6.304688 6.847656 -6.171875 6.984375 -5.984375 C 7.335938 -5.554688 7.515625 -4.992188 7.515625 -4.296875 L 7.515625 -0.75 C 7.515625 -0.351562 7.648438 -0.015625 7.921875 0.265625 C 8.191406 0.546875 8.523438 0.6875 8.921875 0.6875 L 9.5 0.6875 C 9.6875 0.6875 9.78125 0.78125 9.78125 0.96875 L 9.78125 1.90625 C 9.78125 2.09375 9.6875 2.1875 9.5 2.1875 L 8.921875 2.1875 C 8.515625 2.1875 8.128906 2.109375 7.765625 1.953125 C 7.410156 1.804688 7.097656 1.597656 6.828125 1.328125 C 6.566406 1.066406 6.359375 0.753906 6.203125 0.390625 C 6.054688 0.0351562 5.984375 -0.34375 5.984375 -0.75 Z M 5.984375 -0.75 "/></g></g></g><g fill="#000000" fill-opacity="1"><g transform="translate(152.542002, 220.343424)"><g><path d="M 4.734375 -0.265625 L 1.953125 -7.234375 C 1.921875 -7.304688 1.890625 -7.394531 1.859375 -7.5 C 1.835938 -7.613281 1.828125 -7.703125 1.828125 -7.765625 L 1.828125 -13.5 C 1.828125 -13.570312 1.859375 -13.632812 1.921875 -13.6875 C 1.984375 -13.75 2.046875 -13.78125 2.109375 -13.78125 L 3.078125 -13.78125 C 3.265625 -13.78125 3.359375 -13.6875 3.359375 -13.5 L 3.359375 -8.078125 C 3.359375 -7.992188 3.363281 -7.894531 3.375 -7.78125 C 3.394531 -7.675781 3.421875 -7.59375 3.453125 -7.53125 L 5.859375 -1.53125 L 8.125 -1.53125 L 10.546875 -7.53125 C 10.566406 -7.59375 10.585938 -7.675781 10.609375 -7.78125 C 10.628906 -7.894531 10.640625 -7.992188 10.640625 -8.078125 L 10.640625 -13.5 C 10.640625 -13.6875 10.734375 -13.78125 10.921875 -13.78125 L 11.890625 -13.78125 C 12.078125 -13.78125 12.171875 -13.6875 12.171875 -13.5 L 12.171875 -7.765625 C 12.171875 -7.703125 12.160156 -7.613281 12.140625 -7.5 C 12.117188 -7.394531 12.09375 -7.304688 12.0625 -7.234375 L 9.28125 -0.265625 C 9.25 -0.191406 9.191406 -0.128906 9.109375 -0.078125 C 9.035156 -0.0234375 8.957031 0 8.875 0 L 5.125 0 C 5.039062 0 4.960938 -0.0234375 4.890625 -0.078125 C 4.816406 -0.128906 4.765625 -0.191406 4.734375 -0.265625 Z M 4.734375 -0.265625 "/></g></g></g><g fill="#000000" fill-opacity="1"><g transform="translate(166.513635, 220.343424)"><g><path d="M 8.875 -13.78125 C 8.957031 -13.78125 9.035156 -13.75 9.109375 -13.6875 C 9.179688 -13.632812 9.226562 -13.578125 9.25 -13.515625 L 12.046875 -6.53125 C 12.078125 -6.457031 12.097656 -6.367188 12.109375 -6.265625 C 12.128906 -6.160156 12.140625 -6.066406 12.140625 -5.984375 L 12.140625 -0.28125 C 12.140625 -0.09375 12.046875 0 11.859375 0 L 10.921875 0 C 10.734375 0 10.640625 -0.09375 10.640625 -0.28125 L 10.640625 -4 L 3.359375 -4 L 3.359375 -0.28125 C 3.359375 -0.09375 3.265625 0 3.078125 0 L 2.109375 0 C 1.921875 0 1.828125 -0.09375 1.828125 -0.28125 L 1.828125 -5.984375 C 1.828125 -6.066406 1.835938 -6.160156 1.859375 -6.265625 C 1.878906 -6.367188 1.898438 -6.457031 1.921875 -6.53125 L 4.71875 -13.515625 C 4.75 -13.578125 4.800781 -13.632812 4.875 -13.6875 C 4.957031 -13.75 5.03125 -13.78125 5.09375 -13.78125 Z M 10.640625 -5.5 L 10.640625 -5.984375 L 8.125 -12.25 L 5.859375 -12.25 L 3.359375 -5.984375 L 3.359375 -5.5 Z M 10.640625 -5.5 "/></g></g></g><g fill="#000000" fill-opacity="1"><g transform="translate(180.50534, 220.343424)"><g><path d="M 10.265625 -0.265625 L 7.65625 -6.125 L 3.359375 -6.125 L 3.359375 -0.28125 C 3.359375 -0.09375 3.265625 0 3.078125 0 L 2.125 0 C 1.9375 0 1.84375 -0.09375 1.84375 -0.28125 L 1.84375 -13.5 C 1.84375 -13.6875 1.9375 -13.78125 2.125 -13.78125 L 9.234375 -13.78125 C 9.640625 -13.78125 10.019531 -13.703125 10.375 -13.546875 C 10.726562 -13.390625 11.035156 -13.175781 11.296875 -12.90625 C 11.566406 -12.644531 11.78125 -12.332031 11.9375 -11.96875 C 12.09375 -11.613281 12.171875 -11.238281 12.171875 -10.84375 L 12.171875 -9.0625 C 12.171875 -8.40625 11.972656 -7.816406 11.578125 -7.296875 C 11.179688 -6.785156 10.671875 -6.4375 10.046875 -6.25 L 9.359375 -6.046875 L 11.921875 -0.265625 C 11.960938 -0.191406 11.96875 -0.128906 11.9375 -0.078125 C 11.90625 -0.0234375 11.847656 0 11.765625 0 L 10.65625 0 C 10.582031 0 10.503906 -0.0234375 10.421875 -0.078125 C 10.335938 -0.128906 10.285156 -0.191406 10.265625 -0.265625 Z M 3.359375 -7.65625 L 9.234375 -7.65625 C 9.617188 -7.65625 9.945312 -7.789062 10.21875 -8.0625 C 10.5 -8.332031 10.640625 -8.664062 10.640625 -9.0625 L 10.640625 -10.84375 C 10.640625 -11.226562 10.5 -11.554688 10.21875 -11.828125 C 9.945312 -12.109375 9.617188 -12.25 9.234375 -12.25 L 3.359375 -12.25 Z M 3.359375 -7.65625 "/></g></g></g><g fill="#000000" fill-opacity="1"><g transform="translate(194.497046, 220.343424)"><g><path d="M 11.890625 -7.65625 C 11.960938 -7.65625 12.023438 -7.625 12.078125 -7.5625 C 12.140625 -7.5 12.171875 -7.4375 12.171875 -7.375 L 12.171875 -2.9375 C 12.171875 -2.53125 12.09375 -2.144531 11.9375 -1.78125 C 11.78125 -1.425781 11.566406 -1.117188 11.296875 -0.859375 C 11.035156 -0.597656 10.726562 -0.390625 10.375 -0.234375 C 10.019531 -0.078125 9.640625 0 9.234375 0 L 4.765625 0 C 4.359375 0 3.976562 -0.078125 3.625 -0.234375 C 3.269531 -0.390625 2.957031 -0.597656 2.6875 -0.859375 C 2.414062 -1.117188 2.203125 -1.425781 2.046875 -1.78125 C 1.898438 -2.144531 1.828125 -2.53125 1.828125 -2.9375 L 1.828125 -10.84375 C 1.828125 -11.238281 1.898438 -11.613281 2.046875 -11.96875 C 2.203125 -12.332031 2.414062 -12.644531 2.6875 -12.90625 C 2.957031 -13.175781 3.269531 -13.390625 3.625 -13.546875 C 3.976562 -13.703125 4.359375 -13.78125 4.765625 -13.78125 L 9.234375 -13.78125 C 9.640625 -13.78125 10.019531 -13.703125 10.375 -13.546875 C 10.726562 -13.390625 11.035156 -13.179688 11.296875 -12.921875 C 11.554688 -12.660156 11.765625 -12.351562 11.921875 -12 C 12.085938 -11.644531 12.171875 -11.265625 12.171875 -10.859375 L 12.171875 -9.921875 C 12.171875 -9.734375 12.078125 -9.640625 11.890625 -9.640625 L 10.921875 -9.640625 C 10.734375 -9.640625 10.640625 -9.734375 10.640625 -9.921875 L 10.640625 -10.859375 C 10.628906 -11.242188 10.488281 -11.570312 10.21875 -11.84375 C 9.945312 -12.113281 9.617188 -12.25 9.234375 -12.25 L 4.765625 -12.25 C 4.367188 -12.25 4.035156 -12.109375 3.765625 -11.828125 C 3.492188 -11.554688 3.359375 -11.226562 3.359375 -10.84375 L 3.359375 -2.9375 C 3.359375 -2.539062 3.492188 -2.207031 3.765625 -1.9375 C 4.035156 -1.664062 4.367188 -1.53125 4.765625 -1.53125 L 9.234375 -1.53125 C 9.617188 -1.53125 9.945312 -1.664062 10.21875 -1.9375 C 10.5 -2.207031 10.640625 -2.539062 10.640625 -2.9375 L 10.640625 -6.125 L 7.34375 -6.125 C 7.28125 -6.125 7.21875 -6.148438 7.15625 -6.203125 C 7.09375 -6.253906 7.0625 -6.320312 7.0625 -6.40625 L 7.0625 -7.375 C 7.0625 -7.4375 7.09375 -7.5 7.15625 -7.5625 C 7.21875 -7.625 7.28125 -7.65625 7.34375 -7.65625 Z M 11.890625 -7.65625 "/></g></g></g><g fill="#000000" fill-opacity="1"><g transform="translate(208.468679, 220.343424)"><g><path d="M 8.875 -13.78125 C 8.957031 -13.78125 9.035156 -13.75 9.109375 -13.6875 C 9.179688 -13.632812 9.226562 -13.578125 9.25 -13.515625 L 12.046875 -6.53125 C 12.078125 -6.457031 12.097656 -6.367188 12.109375 -6.265625 C 12.128906 -6.160156 12.140625 -6.066406 12.140625 -5.984375 L 12.140625 -0.28125 C 12.140625 -0.09375 12.046875 0 11.859375 0 L 10.921875 0 C 10.734375 0 10.640625 -0.09375 10.640625 -0.28125 L 10.640625 -4 L 3.359375 -4 L 3.359375 -0.28125 C 3.359375 -0.09375 3.265625 0 3.078125 0 L 2.109375 0 C 1.921875 0 1.828125 -0.09375 1.828125 -0.28125 L 1.828125 -5.984375 C 1.828125 -6.066406 1.835938 -6.160156 1.859375 -6.265625 C 1.878906 -6.367188 1.898438 -6.457031 1.921875 -6.53125 L 4.71875 -13.515625 C 4.75 -13.578125 4.800781 -13.632812 4.875 -13.6875 C 4.957031 -13.75 5.03125 -13.78125 5.09375 -13.78125 Z M 10.640625 -5.5 L 10.640625 -5.984375 L 8.125 -12.25 L 5.859375 -12.25 L 3.359375 -5.984375 L 3.359375 -5.5 Z M 10.640625 -5.5 "/></g></g></g><g fill="#000000" fill-opacity="1"><g transform="translate(222.460385, 220.343424)"><g><path d="M 1.828125 -2.9375 L 1.828125 -3.859375 C 1.828125 -3.921875 1.859375 -3.984375 1.921875 -4.046875 C 1.984375 -4.109375 2.046875 -4.140625 2.109375 -4.140625 L 3.078125 -4.140625 C 3.148438 -4.140625 3.210938 -4.109375 3.265625 -4.046875 C 3.328125 -3.984375 3.359375 -3.921875 3.359375 -3.859375 L 3.359375 -2.9375 C 3.359375 -2.539062 3.492188 -2.207031 3.765625 -1.9375 C 4.035156 -1.664062 4.367188 -1.53125 4.765625 -1.53125 L 9.234375 -1.53125 C 9.617188 -1.53125 9.945312 -1.664062 10.21875 -1.9375 C 10.5 -2.207031 10.640625 -2.539062 10.640625 -2.9375 L 10.640625 -4.71875 C 10.640625 -5.101562 10.5 -5.429688 10.21875 -5.703125 C 9.945312 -5.984375 9.617188 -6.125 9.234375 -6.125 L 4.765625 -6.125 C 4.359375 -6.125 3.976562 -6.195312 3.625 -6.34375 C 3.269531 -6.5 2.957031 -6.707031 2.6875 -6.96875 C 2.414062 -7.238281 2.203125 -7.550781 2.046875 -7.90625 C 1.898438 -8.269531 1.828125 -8.65625 1.828125 -9.0625 L 1.828125 -10.84375 C 1.828125 -11.238281 1.898438 -11.613281 2.046875 -11.96875 C 2.203125 -12.332031 2.414062 -12.644531 2.6875 -12.90625 C 2.957031 -13.175781 3.269531 -13.390625 3.625 -13.546875 C 3.976562 -13.703125 4.359375 -13.78125 4.765625 -13.78125 L 9.234375 -13.78125 C 9.640625 -13.78125 10.019531 -13.703125 10.375 -13.546875 C 10.726562 -13.390625 11.035156 -13.175781 11.296875 -12.90625 C 11.566406 -12.644531 11.78125 -12.332031 11.9375 -11.96875 C 12.09375 -11.613281 12.171875 -11.238281 12.171875 -10.84375 L 12.171875 -9.921875 C 12.171875 -9.734375 12.078125 -9.640625 11.890625 -9.640625 L 10.921875 -9.640625 C 10.734375 -9.640625 10.640625 -9.734375 10.640625 -9.921875 L 10.640625 -10.84375 C 10.640625 -11.226562 10.5 -11.554688 10.21875 -11.828125 C 9.945312 -12.109375 9.617188 -12.25 9.234375 -12.25 L 4.765625 -12.25 C 4.367188 -12.25 4.035156 -12.109375 3.765625 -11.828125 C 3.492188 -11.554688 3.359375 -11.226562 3.359375 -10.84375 L 3.359375 -9.0625 C 3.359375 -8.664062 3.492188 -8.332031 3.765625 -8.0625 C 4.035156 -7.789062 4.367188 -7.65625 4.765625 -7.65625 L 9.234375 -7.65625 C 9.640625 -7.65625 10.019531 -7.578125 10.375 -7.421875 C 10.726562 -7.265625 11.035156 -7.050781 11.296875 -6.78125 C 11.566406 -6.519531 11.78125 -6.210938 11.9375 -5.859375 C 12.09375 -5.503906 12.171875 -5.125 12.171875 -4.71875 L 12.171875 -2.9375 C 12.171875 -2.53125 12.09375 -2.144531 11.9375 -1.78125 C 11.78125 -1.425781 11.566406 -1.117188 11.296875 -0.859375 C 11.035156 -0.597656 10.726562 -0.390625 10.375 -0.234375 C 10.019531 -0.078125 9.640625 0 9.234375 0 L 4.765625 0 C 4.359375 0 3.976562 -0.078125 3.625 -0.234375 C 3.269531 -0.390625 2.957031 -0.597656 2.6875 -0.859375 C 2.414062 -1.117188 2.203125 -1.425781 2.046875 -1.78125 C 1.898438 -2.144531 1.828125 -2.53125 1.828125 -2.9375 Z M 1.828125 -2.9375 "/></g></g></g><g fill="#000000" fill-opacity="1"><g transform="translate(236.452091, 220.343424)"><g><path d="M 4.21875 1.90625 L 4.21875 0.96875 C 4.21875 0.78125 4.3125 0.6875 4.5 0.6875 L 5.09375 0.6875 C 5.488281 0.6875 5.820312 0.546875 6.09375 0.265625 C 6.363281 -0.015625 6.5 -0.351562 6.5 -0.75 L 6.5 -4.296875 C 6.5 -5.003906 6.664062 -5.570312 7 -6 C 7.070312 -6.070312 7.132812 -6.140625 7.1875 -6.203125 C 7.25 -6.265625 7.316406 -6.328125 7.390625 -6.390625 L 8.03125 -6.859375 L 7.40625 -7.375 C 7.257812 -7.476562 7.125 -7.609375 7 -7.765625 C 6.664062 -8.191406 6.5 -8.765625 6.5 -9.484375 L 6.5 -13.03125 C 6.5 -13.414062 6.363281 -13.742188 6.09375 -14.015625 C 5.820312 -14.296875 5.488281 -14.4375 5.09375 -14.4375 L 4.5 -14.4375 C 4.414062 -14.4375 4.347656 -14.460938 4.296875 -14.515625 C 4.242188 -14.578125 4.21875 -14.644531 4.21875 -14.71875 L 4.21875 -15.6875 C 4.21875 -15.875 4.3125 -15.96875 4.5 -15.96875 L 5.09375 -15.96875 C 5.5 -15.96875 5.878906 -15.890625 6.234375 -15.734375 C 6.585938 -15.578125 6.894531 -15.367188 7.15625 -15.109375 C 7.414062 -14.847656 7.625 -14.535156 7.78125 -14.171875 C 7.9375 -13.816406 8.015625 -13.4375 8.015625 -13.03125 L 8.015625 -9.484375 C 8.015625 -8.859375 8.144531 -8.445312 8.40625 -8.25 C 8.5 -8.164062 8.644531 -8.097656 8.84375 -8.046875 C 9.050781 -8.003906 9.269531 -7.972656 9.5 -7.953125 C 9.582031 -7.953125 9.648438 -7.921875 9.703125 -7.859375 C 9.753906 -7.796875 9.78125 -7.734375 9.78125 -7.671875 L 9.78125 -6.109375 C 9.78125 -5.929688 9.6875 -5.828125 9.5 -5.796875 C 9.269531 -5.773438 9.050781 -5.742188 8.84375 -5.703125 C 8.644531 -5.660156 8.5 -5.597656 8.40625 -5.515625 C 8.144531 -5.296875 8.015625 -4.890625 8.015625 -4.296875 L 8.015625 -0.75 C 8.015625 -0.34375 7.9375 0.0351562 7.78125 0.390625 C 7.625 0.753906 7.414062 1.066406 7.15625 1.328125 C 6.894531 1.597656 6.585938 1.804688 6.234375 1.953125 C 5.878906 2.109375 5.5 2.1875 5.09375 2.1875 L 4.5 2.1875 C 4.3125 2.1875 4.21875 2.09375 4.21875 1.90625 Z M 4.21875 1.90625 "/></g></g></g></svg>